<svg width="176" height="120" viewBox="0 0 176 120" fill="none" xmlns="http://www.w3.org/2000/svg">
<path d="M115.462 78.476H150.099L105.305 0L79.4183 15.1362L115.462 78.476ZM77.1786 85.965V78.476H104.419L75.3556 27.5826L49.4168 42.6133L69.7824 78.476V85.965H77.1786ZM19.1549 69.5631L24.1552 78.476H58.7923L45.0416 54.5324L19.1549 69.5631ZM104.419 78.476V91.1862C97.44 86.2814 87.8562 88.0218 83.0122 95.1416C78.1682 102.209 79.887 111.913 86.9186 116.817C92.1793 120.509 99.1588 120.509 104.472 116.817V118.927H111.868V78.5288L104.419 78.476ZM58.7923 78.476V91.1862C51.8128 86.2814 42.229 88.0218 37.385 95.1416C32.541 102.261 34.2598 111.913 41.2914 116.817C46.5521 120.509 53.5316 120.509 58.8444 116.817V118.927H66.2405V78.5288L58.7923 78.476ZM149.213 109.118C149.422 115.183 154.578 119.507 163.172 119.507C170.152 119.507 175.933 116.448 175.933 109.645C175.933 104.898 173.329 102.156 167.235 100.996L162.495 100.046C159.474 99.4663 157.339 98.8861 157.339 97.0403C157.339 95.0362 159.37 94.1396 161.922 94.1396C165.672 94.1396 167.183 96.0382 167.287 98.2533H174.735C174.319 92.3465 169.683 88.391 162.131 88.391C154.37 88.391 149.786 92.7156 149.786 98.306C149.786 105.162 155.255 106.27 159.995 107.166L163.902 107.905C166.714 108.432 167.912 109.276 167.912 110.911C167.912 112.387 166.506 113.864 163.172 113.864C158.328 113.864 156.766 111.333 156.714 109.17H149.213V109.118ZM139.057 118.874H146.453V88.7075H139.057V91.1335C132.077 86.2287 122.493 87.9691 117.649 95.0889C112.805 102.156 114.524 111.86 121.556 116.765C126.816 120.456 133.796 120.456 139.109 116.765V118.874H139.057ZM24.1552 118.874H31.5514V88.7075H24.1552V91.1335C17.1757 86.2287 7.59187 87.9691 2.74789 95.0889C-2.0961 102.209 -0.377262 111.86 6.65433 116.765C11.915 120.456 18.8945 120.456 24.2073 116.765L24.1552 118.874ZM77.1786 118.874V88.7075H69.7824V118.874H77.1786ZM7.17519 103.949C7.17519 99.2026 10.9775 95.2999 15.6652 95.2999C20.3529 95.2999 24.2073 99.1498 24.2073 103.896C24.2073 108.643 20.405 112.546 15.7173 112.546C10.9775 112.598 7.17519 108.748 7.17519 103.949C7.17519 104.002 7.17519 104.002 7.17519 103.949ZM41.8123 103.949C41.8123 99.2026 45.6145 95.2999 50.3023 95.2999C54.99 95.2999 58.8444 99.1498 58.8444 103.896C58.8444 108.643 55.0421 112.546 50.3544 112.546C45.6145 112.598 41.8123 108.748 41.8123 103.949C41.8123 104.002 41.8123 104.002 41.8123 103.949ZM122.077 103.949C122.077 99.2026 125.879 95.2999 130.567 95.2999C135.254 95.2999 139.109 99.1498 139.109 103.896C139.109 108.643 135.306 112.546 130.619 112.546C125.931 112.598 122.077 108.748 122.077 103.949C122.077 104.002 122.077 104.002 122.077 103.949ZM87.4395 103.949C87.4395 99.2026 91.2418 95.2999 95.9295 95.2999C100.617 95.2999 104.472 99.1498 104.472 103.896C104.472 108.643 100.669 112.546 95.9816 112.546C91.2938 112.546 87.4916 108.748 87.4395 104.002C87.4395 104.002 87.4395 104.002 87.4395 103.949Z" fill="black"/>
</svg>
